<svg width="95" height="63" viewBox="0 0 95 63" fill="none" xmlns="http://www.w3.org/2000/svg">
<path fill-rule="evenodd" clip-rule="evenodd" d="M48.4506 24.8182C55.2757 24.8182 60.8084 19.2624 60.8084 12.4091C60.8084 5.55574 55.2757 0 48.4506 0C41.6256 0 36.0928 5.55574 36.0928 12.4091C36.0928 19.2624 41.6256 24.8182 48.4506 24.8182ZM48.4506 21C53.1756 21 57.006 17.1537 57.006 12.4091C57.006 7.66446 53.1756 3.81818 48.4506 3.81818C43.7256 3.81818 39.8952 7.66446 39.8952 12.4091C39.8952 17.1537 43.7256 21 48.4506 21Z" fill="#1C1C1B"/>
<path fill-rule="evenodd" clip-rule="evenodd" d="M12.0684 15.5548C12.786 13.1229 15.0111 11.4545 17.537 11.4545H39.9474C39.9129 11.768 39.8952 12.0864 39.8952 12.4091C39.8952 17.1537 43.7256 21 48.4506 21C53.1756 21 57.006 17.1537 57.006 12.4091C57.006 12.0864 56.9883 11.768 56.9538 11.4545H77.463C79.9889 11.4545 82.214 13.1229 82.9316 15.5548L94.7613 55.6457C95.8444 59.3163 93.1052 63 89.2927 63H5.70729C1.89475 63 -0.84443 59.3163 0.23867 55.6457L12.0684 15.5548Z" fill="#1C1C1B"/>
</svg>
